<svg xmlns="http://www.w3.org/2000/svg" viewBox="0 -0.5 512 512" shape-rendering="crispEdges">
<metadata>Made with Pixels to Svg https://codepen.io/shshaw/pen/XbxvNj</metadata>
<path stroke="#fff4a3" d="M192 96h64M192 97h64M192 98h64M192 99h64M192 100h64M192 101h64M192 102h64M192 103h64M192 104h64M192 105h64M192 106h64M192 107h64M192 108h64M192 109h64M192 110h64M192 111h64M192 112h64M192 113h64M192 114h64M192 115h64M192 116h64M192 117h64M192 118h64M192 119h64M192 120h64M192 121h64M192 122h64M192 123h64M192 124h64M192 125h64M192 126h64M192 127h64M192 128h32M192 129h32M192 130h32M192 131h32M192 132h32M192 133h32M192 134h32M192 135h32M192 136h32M192 137h32M192 138h32M192 139h32M192 140h32M192 141h32M192 142h32M192 143h32M192 144h32M192 145h32M192 146h32M192 147h32M192 148h32M192 149h32M192 150h32M192 151h32M192 152h32M192 153h32M192 154h32M192 155h32M192 156h32M192 157h32M192 158h32M192 159h32" />
<path stroke="#e4c66a" d="M256 96h32M256 97h32M256 98h32M256 99h32M256 100h32M256 101h32M256 102h32M256 103h32M256 104h32M256 105h32M256 106h32M256 107h32M256 108h32M256 109h32M256 110h32M256 111h32M256 112h32M256 113h32M256 114h32M256 115h32M256 116h32M256 117h32M256 118h32M256 119h32M256 120h32M256 121h32M256 122h32M256 123h32M256 124h32M256 125h32M256 126h32M256 127h32M224 128h32M224 129h32M224 130h32M224 131h32M224 132h32M224 133h32M224 134h32M224 135h32M224 136h32M224 137h32M224 138h32M224 139h32M224 140h32M224 141h32M224 142h32M224 143h32M224 144h32M224 145h32M224 146h32M224 147h32M224 148h32M224 149h32M224 150h32M224 151h32M224 152h32M224 153h32M224 154h32M224 155h32M224 156h32M224 157h32M224 158h32M224 159h32M192 160h32M192 161h32M192 162h32M192 163h32M192 164h32M192 165h32M192 166h32M192 167h32M192 168h32M192 169h32M192 170h32M192 171h32M192 172h32M192 173h32M192 174h32M192 175h32M192 176h32M192 177h32M192 178h32M192 179h32M192 180h32M192 181h32M192 182h32M192 183h32M192 184h32M192 185h32M192 186h32M192 187h32M192 188h32M192 189h32M192 190h32M192 191h32" />
<path stroke="#aa733f" d="M288 96h32M288 97h32M288 98h32M288 99h32M288 100h32M288 101h32M288 102h32M288 103h32M288 104h32M288 105h32M288 106h32M288 107h32M288 108h32M288 109h32M288 110h32M288 111h32M288 112h32M288 113h32M288 114h32M288 115h32M288 116h32M288 117h32M288 118h32M288 119h32M288 120h32M288 121h32M288 122h32M288 123h32M288 124h32M288 125h32M288 126h32M288 127h32M288 160h32M288 161h32M288 162h32M288 163h32M288 164h32M288 165h32M288 166h32M288 167h32M288 168h32M288 169h32M288 170h32M288 171h32M288 172h32M288 173h32M288 174h32M288 175h32M288 176h32M288 177h32M288 178h32M288 179h32M288 180h32M288 181h32M288 182h32M288 183h32M288 184h32M288 185h32M288 186h32M288 187h32M288 188h32M288 189h32M288 190h32M288 191h32M256 192h32M256 193h32M256 194h32M256 195h32M256 196h32M256 197h32M256 198h32M256 199h32M256 200h32M256 201h32M256 202h32M256 203h32M256 204h32M256 205h32M256 206h32M256 207h32M256 208h32M256 209h32M256 210h32M256 211h32M256 212h32M256 213h32M256 214h32M256 215h32M256 216h32M256 217h32M256 218h32M256 219h32M256 220h32M256 221h32M256 222h32M256 223h32M192 224h64M192 225h64M192 226h64M192 227h64M192 228h64M192 229h64M192 230h64M192 231h64M192 232h64M192 233h64M192 234h64M192 235h64M192 236h64M192 237h64M192 238h64M192 239h64M192 240h64M192 241h64M192 242h64M192 243h64M192 244h64M192 245h64M192 246h64M192 247h64M192 248h64M192 249h64M192 250h64M192 251h64M192 252h64M192 253h64M192 254h64M192 255h64" />
<path stroke="#b0b0b0" d="M128 128h32M320 128h32M128 129h32M320 129h32M128 130h32M320 130h32M128 131h32M320 131h32M128 132h32M320 132h32M128 133h32M320 133h32M128 134h32M320 134h32M128 135h32M320 135h32M128 136h32M320 136h32M128 137h32M320 137h32M128 138h32M320 138h32M128 139h32M320 139h32M128 140h32M320 140h32M128 141h32M320 141h32M128 142h32M320 142h32M128 143h32M320 143h32M128 144h32M320 144h32M128 145h32M320 145h32M128 146h32M320 146h32M128 147h32M320 147h32M128 148h32M320 148h32M128 149h32M320 149h32M128 150h32M320 150h32M128 151h32M320 151h32M128 152h32M320 152h32M128 153h32M320 153h32M128 154h32M320 154h32M128 155h32M320 155h32M128 156h32M320 156h32M128 157h32M320 157h32M128 158h32M320 158h32M128 159h32M320 159h32M128 160h32M320 160h32M128 161h32M320 161h32M128 162h32M320 162h32M128 163h32M320 163h32M128 164h32M320 164h32M128 165h32M320 165h32M128 166h32M320 166h32M128 167h32M320 167h32M128 168h32M320 168h32M128 169h32M320 169h32M128 170h32M320 170h32M128 171h32M320 171h32M128 172h32M320 172h32M128 173h32M320 173h32M128 174h32M320 174h32M128 175h32M320 175h32M128 176h32M320 176h32M128 177h32M320 177h32M128 178h32M320 178h32M128 179h32M320 179h32M128 180h32M320 180h32M128 181h32M320 181h32M128 182h32M320 182h32M128 183h32M320 183h32M128 184h32M320 184h32M128 185h32M320 185h32M128 186h32M320 186h32M128 187h32M320 187h32M128 188h32M320 188h32M128 189h32M320 189h32M128 190h32M320 190h32M128 191h32M320 191h32M128 192h32M320 192h32M128 193h32M320 193h32M128 194h32M320 194h32M128 195h32M320 195h32M128 196h32M320 196h32M128 197h32M320 197h32M128 198h32M320 198h32M128 199h32M320 199h32M128 200h32M320 200h32M128 201h32M320 201h32M128 202h32M320 202h32M128 203h32M320 203h32M128 204h32M320 204h32M128 205h32M320 205h32M128 206h32M320 206h32M128 207h32M320 207h32M128 208h32M320 208h32M128 209h32M320 209h32M128 210h32M320 210h32M128 211h32M320 211h32M128 212h32M320 212h32M128 213h32M320 213h32M128 214h32M320 214h32M128 215h32M320 215h32M128 216h32M320 216h32M128 217h32M320 217h32M128 218h32M320 218h32M128 219h32M320 219h32M128 220h32M320 220h32M128 221h32M320 221h32M128 222h32M320 222h32M128 223h32M320 223h32M320 224h32M320 225h32M320 226h32M320 227h32M320 228h32M320 229h32M320 230h32M320 231h32M320 232h32M320 233h32M320 234h32M320 235h32M320 236h32M320 237h32M320 238h32M320 239h32M320 240h32M320 241h32M320 242h32M320 243h32M320 244h32M320 245h32M320 246h32M320 247h32M320 248h32M320 249h32M320 250h32M320 251h32M320 252h32M320 253h32M320 254h32M320 255h32" />
<path stroke="#959595" d="M160 128h32M352 128h32M160 129h32M352 129h32M160 130h32M352 130h32M160 131h32M352 131h32M160 132h32M352 132h32M160 133h32M352 133h32M160 134h32M352 134h32M160 135h32M352 135h32M160 136h32M352 136h32M160 137h32M352 137h32M160 138h32M352 138h32M160 139h32M352 139h32M160 140h32M352 140h32M160 141h32M352 141h32M160 142h32M352 142h32M160 143h32M352 143h32M160 144h32M352 144h32M160 145h32M352 145h32M160 146h32M352 146h32M160 147h32M352 147h32M160 148h32M352 148h32M160 149h32M352 149h32M160 150h32M352 150h32M160 151h32M352 151h32M160 152h32M352 152h32M160 153h32M352 153h32M160 154h32M352 154h32M160 155h32M352 155h32M160 156h32M352 156h32M160 157h32M352 157h32M160 158h32M352 158h32M160 159h32M352 159h32M160 160h32M352 160h32M160 161h32M352 161h32M160 162h32M352 162h32M160 163h32M352 163h32M160 164h32M352 164h32M160 165h32M352 165h32M160 166h32M352 166h32M160 167h32M352 167h32M160 168h32M352 168h32M160 169h32M352 169h32M160 170h32M352 170h32M160 171h32M352 171h32M160 172h32M352 172h32M160 173h32M352 173h32M160 174h32M352 174h32M160 175h32M352 175h32M160 176h32M352 176h32M160 177h32M352 177h32M160 178h32M352 178h32M160 179h32M352 179h32M160 180h32M352 180h32M160 181h32M352 181h32M160 182h32M352 182h32M160 183h32M352 183h32M160 184h32M352 184h32M160 185h32M352 185h32M160 186h32M352 186h32M160 187h32M352 187h32M160 188h32M352 188h32M160 189h32M352 189h32M160 190h32M352 190h32M160 191h32M352 191h32M160 192h32M352 192h32M160 193h32M352 193h32M160 194h32M352 194h32M160 195h32M352 195h32M160 196h32M352 196h32M160 197h32M352 197h32M160 198h32M352 198h32M160 199h32M352 199h32M160 200h32M352 200h32M160 201h32M352 201h32M160 202h32M352 202h32M160 203h32M352 203h32M160 204h32M352 204h32M160 205h32M352 205h32M160 206h32M352 206h32M160 207h32M352 207h32M160 208h32M352 208h32M160 209h32M352 209h32M160 210h32M352 210h32M160 211h32M352 211h32M160 212h32M352 212h32M160 213h32M352 213h32M160 214h32M352 214h32M160 215h32M352 215h32M160 216h32M352 216h32M160 217h32M352 217h32M160 218h32M352 218h32M160 219h32M352 219h32M160 220h32M352 220h32M160 221h32M352 221h32M160 222h32M352 222h32M160 223h32M352 223h32M128 224h32M352 224h32M128 225h32M352 225h32M128 226h32M352 226h32M128 227h32M352 227h32M128 228h32M352 228h32M128 229h32M352 229h32M128 230h32M352 230h32M128 231h32M352 231h32M128 232h32M352 232h32M128 233h32M352 233h32M128 234h32M352 234h32M128 235h32M352 235h32M128 236h32M352 236h32M128 237h32M352 237h32M128 238h32M352 238h32M128 239h32M352 239h32M128 240h32M352 240h32M128 241h32M352 241h32M128 242h32M352 242h32M128 243h32M352 243h32M128 244h32M352 244h32M128 245h32M352 245h32M128 246h32M352 246h32M128 247h32M352 247h32M128 248h32M352 248h32M128 249h32M352 249h32M128 250h32M352 250h32M128 251h32M352 251h32M128 252h32M352 252h32M128 253h32M352 253h32M128 254h32M352 254h32M128 255h32M352 255h32M320 256h32M320 257h32M320 258h32M320 259h32M320 260h32M320 261h32M320 262h32M320 263h32M320 264h32M320 265h32M320 266h32M320 267h32M320 268h32M320 269h32M320 270h32M320 271h32M320 272h32M320 273h32M320 274h32M320 275h32M320 276h32M320 277h32M320 278h32M320 279h32M320 280h32M320 281h32M320 282h32M320 283h32M320 284h32M320 285h32M320 286h32M320 287h32M128 320h32M320 320h32M128 321h32M320 321h32M128 322h32M320 322h32M128 323h32M320 323h32M128 324h32M320 324h32M128 325h32M320 325h32M128 326h32M320 326h32M128 327h32M320 327h32M128 328h32M320 328h32M128 329h32M320 329h32M128 330h32M320 330h32M128 331h32M320 331h32M128 332h32M320 332h32M128 333h32M320 333h32M128 334h32M320 334h32M128 335h32M320 335h32M128 336h32M320 336h32M128 337h32M320 337h32M128 338h32M320 338h32M128 339h32M320 339h32M128 340h32M320 340h32M128 341h32M320 341h32M128 342h32M320 342h32M128 343h32M320 343h32M128 344h32M320 344h32M128 345h32M320 345h32M128 346h32M320 346h32M128 347h32M320 347h32M128 348h32M320 348h32M128 349h32M320 349h32M128 350h32M320 350h32M128 351h32M320 351h32" />
<path stroke="#c9974c" d="M256 128h64M256 129h64M256 130h64M256 131h64M256 132h64M256 133h64M256 134h64M256 135h64M256 136h64M256 137h64M256 138h64M256 139h64M256 140h64M256 141h64M256 142h64M256 143h64M256 144h64M256 145h64M256 146h64M256 147h64M256 148h64M256 149h64M256 150h64M256 151h64M256 152h64M256 153h64M256 154h64M256 155h64M256 156h64M256 157h64M256 158h64M256 159h64M224 160h64M224 161h64M224 162h64M224 163h64M224 164h64M224 165h64M224 166h64M224 167h64M224 168h64M224 169h64M224 170h64M224 171h64M224 172h64M224 173h64M224 174h64M224 175h64M224 176h64M224 177h64M224 178h64M224 179h64M224 180h64M224 181h64M224 182h64M224 183h64M224 184h64M224 185h64M224 186h64M224 187h64M224 188h64M224 189h64M224 190h64M224 191h64M192 192h64M192 193h64M192 194h64M192 195h64M192 196h64M192 197h64M192 198h64M192 199h64M192 200h64M192 201h64M192 202h64M192 203h64M192 204h64M192 205h64M192 206h64M192 207h64M192 208h64M192 209h64M192 210h64M192 211h64M192 212h64M192 213h64M192 214h64M192 215h64M192 216h64M192 217h64M192 218h64M192 219h64M192 220h64M192 221h64M192 222h64M192 223h64" />
<path stroke="#895a3b" d="M288 192h32M288 193h32M288 194h32M288 195h32M288 196h32M288 197h32M288 198h32M288 199h32M288 200h32M288 201h32M288 202h32M288 203h32M288 204h32M288 205h32M288 206h32M288 207h32M288 208h32M288 209h32M288 210h32M288 211h32M288 212h32M288 213h32M288 214h32M288 215h32M288 216h32M288 217h32M288 218h32M288 219h32M288 220h32M288 221h32M288 222h32M288 223h32M256 224h64M256 225h64M256 226h64M256 227h64M256 228h64M256 229h64M256 230h64M256 231h64M256 232h64M256 233h64M256 234h64M256 235h64M256 236h64M256 237h64M256 238h64M256 239h64M256 240h64M256 241h64M256 242h64M256 243h64M256 244h64M256 245h64M256 246h64M256 247h64M256 248h64M256 249h64M256 250h64M256 251h64M256 252h64M256 253h64M256 254h64M256 255h64" />
<path stroke="#878787" d="M160 224h32M160 225h32M160 226h32M160 227h32M160 228h32M160 229h32M160 230h32M160 231h32M160 232h32M160 233h32M160 234h32M160 235h32M160 236h32M160 237h32M160 238h32M160 239h32M160 240h32M160 241h32M160 242h32M160 243h32M160 244h32M160 245h32M160 246h32M160 247h32M160 248h32M160 249h32M160 250h32M160 251h32M160 252h32M160 253h32M160 254h32M160 255h32M352 256h32M352 257h32M352 258h32M352 259h32M352 260h32M352 261h32M352 262h32M352 263h32M352 264h32M352 265h32M352 266h32M352 267h32M352 268h32M352 269h32M352 270h32M352 271h32M352 272h32M352 273h32M352 274h32M352 275h32M352 276h32M352 277h32M352 278h32M352 279h32M352 280h32M352 281h32M352 282h32M352 283h32M352 284h32M352 285h32M352 286h32M352 287h32M160 320h32M352 320h32M160 321h32M352 321h32M160 322h32M352 322h32M160 323h32M352 323h32M160 324h32M352 324h32M160 325h32M352 325h32M160 326h32M352 326h32M160 327h32M352 327h32M160 328h32M352 328h32M160 329h32M352 329h32M160 330h32M352 330h32M160 331h32M352 331h32M160 332h32M352 332h32M160 333h32M352 333h32M160 334h32M352 334h32M160 335h32M352 335h32M160 336h32M352 336h32M160 337h32M352 337h32M160 338h32M352 338h32M160 339h32M352 339h32M160 340h32M352 340h32M160 341h32M352 341h32M160 342h32M352 342h32M160 343h32M352 343h32M160 344h32M352 344h32M160 345h32M352 345h32M160 346h32M352 346h32M160 347h32M352 347h32M160 348h32M352 348h32M160 349h32M352 349h32M160 350h32M352 350h32M160 351h32M352 351h32" />
<path stroke="#aecacf" d="M128 256h160M128 257h160M128 258h160M128 259h160M128 260h160M128 261h160M128 262h160M128 263h160M128 264h160M128 265h160M128 266h160M128 267h160M128 268h160M128 269h160M128 270h160M128 271h160M128 272h160M128 273h160M128 274h160M128 275h160M128 276h160M128 277h160M128 278h160M128 279h160M128 280h160M128 281h160M128 282h160M128 283h160M128 284h160M128 285h160M128 286h160M128 287h160M160 288h256M160 289h256M160 290h256M160 291h256M160 292h256M160 293h256M160 294h256M160 295h256M160 296h256M160 297h256M160 298h256M160 299h256M160 300h256M160 301h256M160 302h256M160 303h256M160 304h256M160 305h256M160 306h256M160 307h256M160 308h256M160 309h256M160 310h256M160 311h256M160 312h256M160 313h256M160 314h256M160 315h256M160 316h256M160 317h256M160 318h256M160 319h256M192 320h128M192 321h128M192 322h128M192 323h128M192 324h128M192 325h128M192 326h128M192 327h128M192 328h128M192 329h128M192 330h128M192 331h128M192 332h128M192 333h128M192 334h128M192 335h128M192 336h128M192 337h128M192 338h128M192 339h128M192 340h128M192 341h128M192 342h128M192 343h128M192 344h128M192 345h128M192 346h128M192 347h128M192 348h128M192 349h128M192 350h128M192 351h128M160 352h32M320 352h32M160 353h32M320 353h32M160 354h32M320 354h32M160 355h32M320 355h32M160 356h32M320 356h32M160 357h32M320 357h32M160 358h32M320 358h32M160 359h32M320 359h32M160 360h32M320 360h32M160 361h32M320 361h32M160 362h32M320 362h32M160 363h32M320 363h32M160 364h32M320 364h32M160 365h32M320 365h32M160 366h32M320 366h32M160 367h32M320 367h32M160 368h32M320 368h32M160 369h32M320 369h32M160 370h32M320 370h32M160 371h32M320 371h32M160 372h32M320 372h32M160 373h32M320 373h32M160 374h32M320 374h32M160 375h32M320 375h32M160 376h32M320 376h32M160 377h32M320 377h32M160 378h32M320 378h32M160 379h32M320 379h32M160 380h32M320 380h32M160 381h32M320 381h32M160 382h32M320 382h32M160 383h32M320 383h32M160 384h32M320 384h32M160 385h32M320 385h32M160 386h32M320 386h32M160 387h32M320 387h32M160 388h32M320 388h32M160 389h32M320 389h32M160 390h32M320 390h32M160 391h32M320 391h32M160 392h32M320 392h32M160 393h32M320 393h32M160 394h32M320 394h32M160 395h32M320 395h32M160 396h32M320 396h32M160 397h32M320 397h32M160 398h32M320 398h32M160 399h32M320 399h32M160 400h32M320 400h32M160 401h32M320 401h32M160 402h32M320 402h32M160 403h32M320 403h32M160 404h32M320 404h32M160 405h32M320 405h32M160 406h32M320 406h32M160 407h32M320 407h32M160 408h32M320 408h32M160 409h32M320 409h32M160 410h32M320 410h32M160 411h32M320 411h32M160 412h32M320 412h32M160 413h32M320 413h32M160 414h32M320 414h32M160 415h32M320 415h32M160 416h32M320 416h32M160 417h32M320 417h32M160 418h32M320 418h32M160 419h32M320 419h32M160 420h32M320 420h32M160 421h32M320 421h32M160 422h32M320 422h32M160 423h32M320 423h32M160 424h32M320 424h32M160 425h32M320 425h32M160 426h32M320 426h32M160 427h32M320 427h32M160 428h32M320 428h32M160 429h32M320 429h32M160 430h32M320 430h32M160 431h32M320 431h32M160 432h32M320 432h32M160 433h32M320 433h32M160 434h32M320 434h32M160 435h32M320 435h32M160 436h32M320 436h32M160 437h32M320 437h32M160 438h32M320 438h32M160 439h32M320 439h32M160 440h32M320 440h32M160 441h32M320 441h32M160 442h32M320 442h32M160 443h32M320 443h32M160 444h32M320 444h32M160 445h32M320 445h32M160 446h32M320 446h32M160 447h32M320 447h32M160 448h32M320 448h32M160 449h32M320 449h32M160 450h32M320 450h32M160 451h32M320 451h32M160 452h32M320 452h32M160 453h32M320 453h32M160 454h32M320 454h32M160 455h32M320 455h32M160 456h32M320 456h32M160 457h32M320 457h32M160 458h32M320 458h32M160 459h32M320 459h32M160 460h32M320 460h32M160 461h32M320 461h32M160 462h32M320 462h32M160 463h32M320 463h32M160 464h32M320 464h32M160 465h32M320 465h32M160 466h32M320 466h32M160 467h32M320 467h32M160 468h32M320 468h32M160 469h32M320 469h32M160 470h32M320 470h32M160 471h32M320 471h32M160 472h32M320 472h32M160 473h32M320 473h32M160 474h32M320 474h32M160 475h32M320 475h32M160 476h32M320 476h32M160 477h32M320 477h32M160 478h32M320 478h32M160 479h32M320 479h32" />
<path stroke="#9ec2c9" d="M288 256h32M288 257h32M288 258h32M288 259h32M288 260h32M288 261h32M288 262h32M288 263h32M288 264h32M288 265h32M288 266h32M288 267h32M288 268h32M288 269h32M288 270h32M288 271h32M288 272h32M288 273h32M288 274h32M288 275h32M288 276h32M288 277h32M288 278h32M288 279h32M288 280h32M288 281h32M288 282h32M288 283h32M288 284h32M288 285h32M288 286h32M288 287h32" />
<path stroke="#8fb8c0" d="M96 288h64M416 288h64M96 289h64M416 289h64M96 290h64M416 290h64M96 291h64M416 291h64M96 292h64M416 292h64M96 293h64M416 293h64M96 294h64M416 294h64M96 295h64M416 295h64M96 296h64M416 296h64M96 297h64M416 297h64M96 298h64M416 298h64M96 299h64M416 299h64M96 300h64M416 300h64M96 301h64M416 301h64M96 302h64M416 302h64M96 303h64M416 303h64M96 304h64M416 304h64M96 305h64M416 305h64M96 306h64M416 306h64M96 307h64M416 307h64M96 308h64M416 308h64M96 309h64M416 309h64M96 310h64M416 310h64M96 311h64M416 311h64M96 312h64M416 312h64M96 313h64M416 313h64M96 314h64M416 314h64M96 315h64M416 315h64M96 316h64M416 316h64M96 317h64M416 317h64M96 318h64M416 318h64M96 319h64M416 319h64M32 320h96M384 320h64M32 321h96M384 321h64M32 322h96M384 322h64M32 323h96M384 323h64M32 324h96M384 324h64M32 325h96M384 325h64M32 326h96M384 326h64M32 327h96M384 327h64M32 328h96M384 328h64M32 329h96M384 329h64M32 330h96M384 330h64M32 331h96M384 331h64M32 332h96M384 332h64M32 333h96M384 333h64M32 334h96M384 334h64M32 335h96M384 335h64M32 336h96M384 336h64M32 337h96M384 337h64M32 338h96M384 338h64M32 339h96M384 339h64M32 340h96M384 340h64M32 341h96M384 341h64M32 342h96M384 342h64M32 343h96M384 343h64M32 344h96M384 344h64M32 345h96M384 345h64M32 346h96M384 346h64M32 347h96M384 347h64M32 348h96M384 348h64M32 349h96M384 349h64M32 350h96M384 350h64M32 351h96M384 351h64M128 352h32M192 352h128M352 352h32M128 353h32M192 353h128M352 353h32M128 354h32M192 354h128M352 354h32M128 355h32M192 355h128M352 355h32M128 356h32M192 356h128M352 356h32M128 357h32M192 357h128M352 357h32M128 358h32M192 358h128M352 358h32M128 359h32M192 359h128M352 359h32M128 360h32M192 360h128M352 360h32M128 361h32M192 361h128M352 361h32M128 362h32M192 362h128M352 362h32M128 363h32M192 363h128M352 363h32M128 364h32M192 364h128M352 364h32M128 365h32M192 365h128M352 365h32M128 366h32M192 366h128M352 366h32M128 367h32M192 367h128M352 367h32M128 368h32M192 368h128M352 368h32M128 369h32M192 369h128M352 369h32M128 370h32M192 370h128M352 370h32M128 371h32M192 371h128M352 371h32M128 372h32M192 372h128M352 372h32M128 373h32M192 373h128M352 373h32M128 374h32M192 374h128M352 374h32M128 375h32M192 375h128M352 375h32M128 376h32M192 376h128M352 376h32M128 377h32M192 377h128M352 377h32M128 378h32M192 378h128M352 378h32M128 379h32M192 379h128M352 379h32M128 380h32M192 380h128M352 380h32M128 381h32M192 381h128M352 381h32M128 382h32M192 382h128M352 382h32M128 383h32M192 383h128M352 383h32M128 384h32M352 384h32M128 385h32M352 385h32M128 386h32M352 386h32M128 387h32M352 387h32M128 388h32M352 388h32M128 389h32M352 389h32M128 390h32M352 390h32M128 391h32M352 391h32M128 392h32M352 392h32M128 393h32M352 393h32M128 394h32M352 394h32M128 395h32M352 395h32M128 396h32M352 396h32M128 397h32M352 397h32M128 398h32M352 398h32M128 399h32M352 399h32M128 400h32M352 400h32M128 401h32M352 401h32M128 402h32M352 402h32M128 403h32M352 403h32M128 404h32M352 404h32M128 405h32M352 405h32M128 406h32M352 406h32M128 407h32M352 407h32M128 408h32M352 408h32M128 409h32M352 409h32M128 410h32M352 410h32M128 411h32M352 411h32M128 412h32M352 412h32M128 413h32M352 413h32M128 414h32M352 414h32M128 415h32M352 415h32M352 416h32M352 417h32M352 418h32M352 419h32M352 420h32M352 421h32M352 422h32M352 423h32M352 424h32M352 425h32M352 426h32M352 427h32M352 428h32M352 429h32M352 430h32M352 431h32M352 432h32M352 433h32M352 434h32M352 435h32M352 436h32M352 437h32M352 438h32M352 439h32M352 440h32M352 441h32M352 442h32M352 443h32M352 444h32M352 445h32M352 446h32M352 447h32" />
<path stroke="#88a5ab" d="M448 320h32M448 321h32M448 322h32M448 323h32M448 324h32M448 325h32M448 326h32M448 327h32M448 328h32M448 329h32M448 330h32M448 331h32M448 332h32M448 333h32M448 334h32M448 335h32M448 336h32M448 337h32M448 338h32M448 339h32M448 340h32M448 341h32M448 342h32M448 343h32M448 344h32M448 345h32M448 346h32M448 347h32M448 348h32M448 349h32M448 350h32M448 351h32M32 352h96M384 352h96M32 353h96M384 353h96M32 354h96M384 354h96M32 355h96M384 355h96M32 356h96M384 356h96M32 357h96M384 357h96M32 358h96M384 358h96M32 359h96M384 359h96M32 360h96M384 360h96M32 361h96M384 361h96M32 362h96M384 362h96M32 363h96M384 363h96M32 364h96M384 364h96M32 365h96M384 365h96M32 366h96M384 366h96M32 367h96M384 367h96M32 368h96M384 368h96M32 369h96M384 369h96M32 370h96M384 370h96M32 371h96M384 371h96M32 372h96M384 372h96M32 373h96M384 373h96M32 374h96M384 374h96M32 375h96M384 375h96M32 376h96M384 376h96M32 377h96M384 377h96M32 378h96M384 378h96M32 379h96M384 379h96M32 380h96M384 380h96M32 381h96M384 381h96M32 382h96M384 382h96M32 383h96M384 383h96M192 384h128M192 385h128M192 386h128M192 387h128M192 388h128M192 389h128M192 390h128M192 391h128M192 392h128M192 393h128M192 394h128M192 395h128M192 396h128M192 397h128M192 398h128M192 399h128M192 400h128M192 401h128M192 402h128M192 403h128M192 404h128M192 405h128M192 406h128M192 407h128M192 408h128M192 409h128M192 410h128M192 411h128M192 412h128M192 413h128M192 414h128M192 415h128" />
</svg>